<svg version="1.2" xmlns="http://www.w3.org/2000/svg" viewBox="0 0 800 800" width="800" height="800">
	<title>audio</title>
	<style>
		.s0 { fill: #7761eb } 
	</style>
	<path class="s0" d="m33.3 533.3v-266.6c0-8.9 3.5-17.4 9.8-23.6 6.2-6.3 14.7-9.8 23.6-9.8 8.8 0 17.3 3.5 23.5 9.8 6.3 6.2 9.8 14.7 9.8 23.6v266.6c0 8.9-3.5 17.4-9.8 23.6-6.2 6.3-14.7 9.8-23.5 9.8-8.9 0-17.4-3.5-23.6-9.8-6.3-6.2-9.8-14.7-9.8-23.6zm233.4 133.4v-533.4c0-8.8-3.5-17.3-9.8-23.5-6.2-6.3-14.7-9.8-23.6-9.8-8.8 0-17.3 3.5-23.5 9.8-6.3 6.2-9.8 14.7-9.8 23.5v533.4c0 8.8 3.5 17.3 9.8 23.5 6.2 6.3 14.7 9.8 23.5 9.8 8.9 0 17.4-3.5 23.6-9.8 6.3-6.2 9.8-14.7 9.8-23.5zm166.6 66.6v-666.6c0-8.9-3.5-17.4-9.7-23.6-6.3-6.3-14.8-9.8-23.6-9.8-8.8 0-17.3 3.5-23.6 9.8-6.2 6.2-9.7 14.7-9.7 23.6v666.6c0 8.9 3.5 17.4 9.7 23.6 6.3 6.3 14.8 9.8 23.6 9.8 8.8 0 17.3-3.5 23.6-9.8 6.2-6.2 9.7-14.7 9.7-23.6zm166.7-66.6v-533.4c0-8.8-3.5-17.3-9.8-23.5-6.2-6.3-14.7-9.8-23.5-9.8-8.9 0-17.4 3.5-23.6 9.8-6.3 6.2-9.8 14.7-9.8 23.5v533.4c0 8.8 3.5 17.3 9.8 23.5 6.2 6.3 14.7 9.8 23.6 9.8 8.8 0 17.3-3.5 23.5-9.8 6.3-6.2 9.8-14.7 9.8-23.5zm133.3-433.4c-4.3 0-8.7 0.9-12.7 2.6-4.1 1.6-7.7 4.1-10.8 7.2-3.1 3.1-5.6 6.8-7.3 10.8-1.6 4.1-2.5 8.4-2.5 12.8v266.6c0 8.9 3.5 17.4 9.8 23.6 6.2 6.3 14.7 9.8 23.5 9.8 8.9 0 17.4-3.5 23.6-9.8 6.3-6.2 9.8-14.7 9.8-23.6v-266.6c0-4.4-0.9-8.7-2.6-12.8-1.6-4-4.1-7.7-7.2-10.8-3.1-3.1-6.8-5.6-10.8-7.2-4.1-1.7-8.4-2.6-12.8-2.6z"/>
</svg>