<svg version="1.2" xmlns="http://www.w3.org/2000/svg" viewBox="0 0 800 800" width="800" height="800">
	<title>github</title>
	<style>
		.s0 { fill: #7761eb;stroke: #323232;stroke-linecap: round;stroke-linejoin: round;stroke-width: 66.7 } 
	</style>
	<path class="s0" d="m309.7 700v-85.3l1.2-60.6c1.3-18.9 8.6-36.7 20.7-50.4q0.3-0.3 0.6-0.6c0.4-0.6 0.1-1.4-0.6-1.5-80.7-10.1-164.9-44.2-164.9-192.7-0.5-36.6 11.4-72 33.4-99.8q1.2-1.5 2.4-2.9c1-1.3 1.4-2.9 0.9-4.5q0-0.1-0.1-0.3-0.8-2.6-1.5-5.3c-8.1-30.6-6.4-63.3 5-92.8q0.2-0.4 0.3-0.7c0.4-1.1 1.3-1.9 2.5-2.1 7.1-1.3 36.1-3 91.5 35.3q2.6 1.8 5.3 3.7c1.2 0.9 2.9 1.2 4.4 0.7q0.1 0 0.1 0 4.5-1.3 9-2.4c52.7-13.4 107.5-13.4 160.2 0q4.3 1.1 8.5 2.3 0.1 0 0.2 0c1.8 0.5 3.7 0.2 5.2-0.9q2.5-1.8 4.9-3.4c55.3-38.2 84.1-36.6 91.3-35.3 1.1 0.2 2.1 1 2.5 2.1q0.1 0.3 0.2 0.5c11.6 29.5 13.4 62.3 5.3 93q-0.7 2.8-1.6 5.5c-0.5 1.6-0.1 3.4 1 4.7q0 0.1 0.1 0.1 1.1 1.3 2.2 2.7c22 27.8 33.9 63.2 33.4 99.8 0 149.3-84.8 182.5-165.9 191.6-0.5 0.1-0.7 0.6-0.4 1q0.2 0.2 0.4 0.4c8.2 9.1 14.5 19.9 18.6 31.8 4.3 12.4 6.1 25.6 5.2 38.8v127.5"/>
	<path class="s0" d="m133.3 566.7c12.3 1.7 24.1 6.2 34.4 13.2 10.3 7 18.9 16.2 25.1 27 5.3 9.6 12.4 18.1 21 25 8.5 6.8 18.3 11.9 28.8 14.9 10.6 3 21.6 4 32.4 2.7 10.9-1.2 21.4-4.6 31-10"/>
</svg>