<svg version="1.2" xmlns="http://www.w3.org/2000/svg" viewBox="0 0 800 800" width="800" height="800">
	<title>guitar-svgrepo-com</title>
	<style>
		.s0 { fill: #7761eb } 
	</style>
	<path fill-rule="evenodd" class="s0" d="m213.3 729.9c-12.7 0-23-10.3-23-23.1 0-12.7 10.3-23 23-23 12.8 0 23.1 10.3 23.1 23 0 12.8-10.3 23.1-23.1 23.1z"/>
	<path class="s0" d="m309.5 552.8l-62.4-62.3 30.6-30.5 62.3 62.3z"/>
	<path class="s0" d="m187.3 550.3l30.6-30.5 62.3 62.3-30.6 30.5z"/>
	<path class="s0" d="m167.8 585.2l48.2 48.2-17.4 17.4-48.2-48.2z"/>
	<path class="s0" d="m261.7 650.3c-8.3 8.3-10.7 20.7-6.3 31.4 4.5 10.8 15 17.8 26.7 17.8 11.6 0 22.1-7 26.6-17.8 4.5-10.7 2-23.1-6.2-31.4-11.3-11.2-29.6-11.2-40.8 0z"/>
	<path class="s0" d="m748.7 150.4l-6.2-6.2c40.8-38.8 44.5-49.3 3.5-90.2-40.9-41-51.4-37.3-90.2 3.5l-6.2-6.2c5.4-6.6 7.7-13.2 1.7-19.2-7.4-7.4-15.6-2.4-23.8 5.8-8.1 8.1-13.1 16.4-5.7 23.7 6 6 12.5 3.8 19.2-1.6l6.4 6.4c-9.4 10-20.3 21.8-33.4 35.3l-7.4-7.4c5.4-6.6 7.6-13.2 1.7-19.2-7.4-7.3-15.6-2.4-23.8 5.7-8.1 8.2-13.1 16.4-5.7 23.8 6 6 12.5 3.7 19.2-1.7l7.4 7.5c-1.4 1.4-2.7 2.7-4.2 4.2-11.4 11.5-21.3 21.4-29.9 30.4l-7.7-7.7c5.4-6.6 7.6-13.2 1.6-19.2-7.3-7.3-15.6-2.4-23.7 5.8-8.1 8.1-13.1 16.4-5.7 23.7 6 6 12.5 3.8 19.2-1.6l8 8c-24.6 27.3-33.1 44.7-23.7 64.3l-160.9 151.8c-19.8-19.3-42.3-35.2-77.1-32.6-83.3 6.3-28.7 101.2-135.4 108.3-38.1 2.5-74.3 10.9-100.5 37.1-66.7 66.6-45.4 158.1 24.1 227.6 69.5 69.5 161 90.7 227.6 24.2 34.7-34.8 33.5-97.7 45.2-135.4 15-48.6 93.2-32.2 89.7-86.3-0.3-5.1-1.6-8.3-3.6-10.2-9.7-9.7-37 13.5-53.4-3-5.1-5.1-9.2-14.1-11.3-29.2l198-209.8c19.6 9.3 37 0.8 64.3-23.8l8 8c-5.4 6.7-7.6 13.3-1.6 19.3 7.3 7.3 15.6 2.4 23.7-5.8 8.2-8.1 13.1-16.4 5.8-23.7-6-6-12.6-3.8-19.2 1.6l-7.7-7.7c9-8.5 18.9-18.4 30.4-29.9 1.5-1.4 2.8-2.7 4.3-4.2l7.4 7.5c-5.4 6.6-7.7 13.2-1.7 19.2 7.4 7.3 15.6 2.4 23.8-5.8 8.1-8.1 13.1-16.4 5.7-23.7-6-6-12.5-3.8-19.2 1.6l-7.3-7.3c13.5-13.2 25.2-24.1 35.2-33.5l6.5 6.5c-5.5 6.6-7.7 13.2-1.7 19.2 7.4 7.3 15.6 2.4 23.8-5.8 8.1-8.2 13.1-16.4 5.7-23.8-6-6-12.5-3.7-19.2 1.7zm-345.9 382.5c-1.1 0.5-2.2 1-3.5 1.5-22.2 9.1-52.6 21.6-63.4 56.8-4 12.8-6.5 27-9.1 42.2-5.2 29.7-11 63.5-29.2 81.7-25.5 25.5-55.5 35.9-89.3 31.1-33-4.7-68.3-24.3-99.2-55.3-31-30.9-50.6-66.2-55.3-99.2-4.8-33.7 5.6-63.7 31.1-89.2 17.5-17.5 43-26.5 82.9-29.1 74.2-5 91.1-48.2 102.2-76.8 8.8-22.3 11.7-29.9 33.4-31.5 22.6-1.7 37.8 7.5 55 24l-54.1 51 55.6 55.7 1-1.1c3.4 10.2 8.2 18.3 14.6 24.7q2.7 2.8 5.9 5.1 3.1 2.2 6.6 4 3.5 1.7 7.2 2.8 3.8 1.2 7.6 1.6zm194.4-352.6c-3 3-7.1 4.7-11.4 4.7-4.2 0-8.3-1.7-11.3-4.7-3-3-4.7-7.1-4.7-11.3 0-4.3 1.7-8.4 4.7-11.4 3-3 7.1-4.7 11.3-4.7 4.3 0 8.4 1.7 11.4 4.7 3 3.1 4.7 7.1 4.7 11.4 0 4.2-1.7 8.3-4.7 11.3zm20.5-65.9c6.3-6.2 16.4-6.2 22.7 0 1.5 1.5 2.7 3.3 3.5 5.2 0.8 2 1.2 4.1 1.2 6.2 0 2.1-0.4 4.1-1.2 6.1-0.8 1.9-2 3.7-3.5 5.2-6.3 6.3-16.4 6.2-22.7 0-1.5-1.5-2.7-3.3-3.5-5.2-0.8-2-1.2-4-1.2-6.1 0-2.2 0.4-4.2 1.2-6.2 0.8-1.9 2-3.7 3.5-5.2zm24.8 111.3c-3 2.7-7 4.2-11.2 4.1-4.1-0.1-8-1.8-10.9-4.7-2.9-2.9-4.6-6.8-4.7-10.9-0.1-4.2 1.4-8.2 4.1-11.2 6.3-6.3 16.5-6.3 22.7 0 1.5 1.5 2.7 3.2 3.5 5.2 0.8 1.9 1.2 4 1.2 6.1 0 2.1-0.4 4.2-1.2 6.2-0.8 1.9-2 3.7-3.5 5.2zm18.4-154.5c1.5-1.5 3.3-2.6 5.2-3.5 1.9-0.8 4-1.2 6.1-1.2 2.1 0 4.2 0.4 6.2 1.3 1.9 0.8 3.7 2 5.2 3.5 4.6 4.5 5.9 11.4 3.4 17.4-2.5 6-8.3 9.9-14.8 9.9-6.5 0-12.3-3.9-14.8-9.9-2.5-6-1.1-12.9 3.5-17.5zm24.8 111.3c-3 2.8-7 4.4-11.2 4.3-4.2-0.1-8.2-1.7-11.1-4.7-3-2.9-4.7-6.9-4.7-11.1-0.1-4.2 1.5-8.2 4.3-11.2 6.3-6.3 16.5-6.3 22.7 0 1.5 1.5 2.7 3.2 3.5 5.2 0.8 1.9 1.2 4 1.2 6.1 0 2.1-0.4 4.2-1.2 6.1-0.8 2-2 3.8-3.5 5.3zm43.2-43.2c-3 2.9-7.1 4.6-11.3 4.6-4.3 0-8.3-1.7-11.3-4.7-3-3-4.7-7-4.7-11.3 0-4.2 1.7-8.3 4.7-11.3 6.2-6.3 16.4-6.3 22.6 0 6.3 6.3 6.3 16.4 0 22.7z"/>
</svg>