<svg version="1.2" xmlns="http://www.w3.org/2000/svg" viewBox="0 0 800 800" width="800" height="800">
	<title>podcast</title>
	<style>
		.s0 { fill: #7761eb;stroke: #000000;stroke-linecap: round;stroke-linejoin: round;stroke-width: 66.7 } 
	</style>
	<path class="s0" d="m200 590.3c-61.4-55-100-134.8-100-223.6 0-165.7 134.3-300 300-300 165.7 0 300 134.3 300 300 0 88.8-38.6 168.6-100 223.6m-339.9-133c-16.9-26.1-26.8-57.2-26.8-90.6 0-92.1 74.7-166.7 166.7-166.7 92 0 166.7 74.6 166.7 166.7 0 33.3-9.8 64.4-26.7 90.5m-140 276.1c-36.8 0-66.7-29.8-66.7-66.6v-66.7c0-36.8 29.9-66.7 66.7-66.7 36.8 0 66.7 29.9 66.7 66.7v66.7c0 36.8-29.9 66.6-66.7 66.6zm33.3-366.6c0 18.4-14.9 33.3-33.3 33.3-18.4 0-33.3-14.9-33.3-33.3 0-18.4 14.9-33.4 33.3-33.4 18.4 0 33.3 15 33.3 33.4z"/>
</svg>