<svg version="1.2" xmlns="http://www.w3.org/2000/svg" viewBox="0 0 800 800" width="800" height="800">
	<title>puzzle</title>
	<style>
		.s0 { fill: #7761eb } 
	</style>
	<path class="s0" d="m599.9 456.3h-67.8c-0.4 0-0.6-0.2-1-0.2-10.3 0-18.7 8.4-18.7 18.8q0 0 0 0.1c0 27.6-22.4 50-50 50-27.7 0-50-22.4-50-50q0-0.1 0-0.2c0-10.3-8.4-18.7-18.8-18.7-0.3 0-0.6 0.1-1 0.2h-48.9v-33.3c39.6-8.8 68.7-43.7 68.7-85.4 0-41.6-29.1-76.5-68.1-85.2l-0.6-0.1v-52.4c0-10.3-8.4-18.7-18.8-18.7h-274.9c-10.4 0-18.8 8.4-18.8 18.7v274.4l-0.1 0.6v275c0 10.4 8.4 18.8 18.7 18.8l550 0.1c10.4 0 18.8-8.4 18.8-18.8v-275c0-10.3-8.4-18.7-18.7-18.7zm-531.1-237.6h237.4v50.3c0 10.3 8.4 18.7 18.8 18.7 27.6 0 50 22.4 50 50 0 27.6-22.4 50-50 50-10.4 0-18.8 8.4-18.8 18.8v49.7h-33.2c-8.8-39.7-43.7-69-85.4-69-41.7 0-76.6 29.3-85.3 68.4l-0.1 0.6h-33.4zm-0.2 275h49c0.4 0 0.7 0.2 1.2 0.2 10.4-0.1 18.7-8.6 18.8-19 0.1-27.5 22.4-49.8 50-49.8 27.5 0 49.9 22.4 49.9 50q0 0 0 0.1c0 10.4 8.4 18.7 18.8 18.7 0.4 0 0.7-0.2 1.2-0.2h48.7v33.3c-39.6 8.9-68.8 43.8-68.8 85.4 0 36.1 21.8 67 53 80.4l0.6 0.2c4.2 1.9 9.3 3.5 14.6 4.6l0.6 0.1v33.5h-237.5zm512.4 237.6h-237.4v-49c0-0.4 0.2-0.7 0.2-1.1-0.2-10.4-8.6-18.8-19-18.8-27.5-0.1-49.8-22.4-49.8-50 0-27.6 22.3-49.9 49.9-49.9q0.1 0 0.2 0c10.3 0 18.7-8.4 18.7-18.8 0-0.4-0.2-0.7-0.2-1.1v-48.8h33.4c9 39.5 43.7 68.6 85.3 68.6 41.6 0 76.4-29.1 85.2-68l0.1-0.6h33.5zm168.7-700h-274.9c-10.4 0-18.8 8.4-18.8 18.7v67.6c0 0.4-0.2 0.7-0.2 1.2 0 10.3 8.3 18.7 18.7 18.7 27.6 0 50 22.4 50 50 0 27.6-22.4 50-50 50-10.4 0-18.7 8.4-18.7 18.8 0 0.4 0.2 0.8 0.2 1.2v67.5c0 10.4 8.4 18.8 18.8 18.8h51.9c8.8 39.6 43.7 68.7 85.3 68.7 41.7 0 76.5-29.1 85.3-68.2l0.1-0.5h52.3c10.4 0 18.8-8.4 18.8-18.8v-275c0-10.3-8.4-18.7-18.8-18.7zm-18.7 275h-50.3c-10.3 0-18.7 8.4-18.7 18.7 0 27.6-22.4 50-50 50-27.6 0-50-22.4-50-50 0-10.3-8.4-18.7-18.8-18.7h-49.7v-33.5c39.5-8.9 68.5-43.7 68.5-85.3 0-41.6-29-76.3-67.9-85.2l-0.6-0.1v-33.4h237.5z"/>
</svg>